<svg id="add_friend_24" viewBox="0 0 24 24" fill="none" xmlns="http://www.w3.org/2000/svg"><path fill-rule="evenodd" clip-rule="evenodd" d="M14.5 7.5C14.5 9.15685 13.1569 10.5 11.5 10.5C9.84315 10.5 8.5 9.15685 8.5 7.5C8.5 5.84315 9.84315 4.5 11.5 4.5C13.1569 4.5 14.5 5.84315 14.5 7.5ZM16 7.5C16 9.98528 13.9853 12 11.5 12C9.01472 12 7 9.98528 7 7.5C7 5.01472 9.01472 3 11.5 3C13.9853 3 16 5.01472 16 7.5ZM18.75 21L18.75 17.7827H22.009V16.2827H18.75L18.7501 13L17.2501 13L17.25 16.2827H14.009V17.7827H17.25L17.25 21L18.75 21ZM12.9948 14.5H13V13H10.1145C6.43264 13 3.44788 15.9848 3.44788 19.6667C3.44788 20.403 4.04483 21 4.78121 21H13V19.5H4.95051C5.0385 16.7237 7.31684 14.5 10.1145 14.5H10.1237H10.1328H10.1419H10.151H10.1601H10.1692H10.1783H10.1875H10.1966H10.2057H10.2148H10.2239H10.233H10.2421H10.2513H10.2604H10.2695H10.2786H10.2877H10.2968H10.3059H10.3151H10.3242H10.3333H10.3424H10.3515H10.3606H10.3698H10.3789H10.388H10.3971H10.4062H10.4153H10.4244H10.4336H10.4427H10.4518H10.4609H10.47H10.4791H10.4882H10.4974H10.5065H10.5156H10.5247H10.5338H10.5429H10.552H10.5612H10.5703H10.5794H10.5885H10.5976H10.6067H10.6158H10.625H10.6341H10.6432H10.6523H10.6614H10.6705H10.6796H10.6888H10.6979H10.707H10.7161H10.7252H10.7343H10.7434H10.7526H10.7617H10.7708H10.7799H10.789H10.7981H10.8073H10.8164H10.8255H10.8346H10.8437H10.8528H10.8619H10.8711H10.8802H10.8893H10.8984H10.9075H10.9166H10.9257H10.9349H10.944H10.9531H10.9622H10.9713H10.9804H10.9895H10.9987H11.0078H11.0169H11.026H11.0351H11.0442H11.0533H11.0625H11.0716H11.0807H11.0898H11.0989H11.108H11.1171H11.1263H11.1354H11.1445H11.1536H11.1627H11.1718H11.1809H11.1901H11.1992H11.2083H11.2174H11.2265H11.2356H11.2448H11.2539H11.263H11.2721H11.2812H11.2903H11.2994H11.3086H11.3177H11.3268H11.3359H11.345H11.3541H11.3632H11.3724H11.3815H11.3906H11.3997H11.4088H11.4179H11.427H11.4362H11.4453H11.4544H11.4635H11.4726H11.4817H11.4908H11.5H11.5091H11.5182H11.5273H11.5364H11.5455H11.5546H11.5638H11.5729H11.582H11.5911H11.6002H11.6093H11.6184H11.6276H11.6367H11.6458H11.6549H11.664H11.6731H11.6823H11.6914H11.7005H11.7096H11.7187H11.7278H11.7369H11.7461H11.7552H11.7643H11.7734H11.7825H11.7916H11.8007H11.8099H11.819H11.8281H11.8372H11.8463H11.8554H11.8645H11.8737H11.8828H11.8919H11.901H11.9101H11.9192H11.9283H11.9375H11.9466H11.9557H11.9648H11.9739H11.983H11.9921H12.0013H12.0104H12.0195H12.0286H12.0377H12.0468H12.0559H12.0651H12.0742H12.0833H12.0924H12.1015H12.1106H12.1198H12.1289H12.138H12.1471H12.1562H12.1653H12.1744H12.1836H12.1927H12.2018H12.2109H12.22H12.2291H12.2382H12.2474H12.2565H12.2656H12.2747H12.2838H12.2929H12.302H12.3112H12.3203H12.3294H12.3385H12.3476H12.3567H12.3658H12.375H12.3841H12.3932H12.4023H12.4114H12.4205H12.4296H12.4388H12.4479H12.457H12.4661H12.4752H12.4843H12.4934H12.5026H12.5117H12.5208H12.5299H12.539H12.5481H12.5573H12.5664H12.5755H12.5846H12.5937H12.6028H12.6119H12.6211H12.6302H12.6393H12.6484H12.6575H12.6666H12.6757H12.6849H12.694H12.7031H12.7122H12.7213H12.7304H12.7395H12.7487H12.7578H12.7669H12.776H12.7851H12.7942H12.8033H12.8125H12.8216H12.8307H12.8398H12.8489H12.858H12.8671H12.8763H12.8854H12.8945H12.9036H12.9127H12.9218H12.9309H12.9401H12.9492H12.9583H12.9674H12.9765H12.9856H12.9948Z" fill="currentColor"></path></svg>