<svg id="administering_user_24" viewBox="0 0 24 24" fill="none" xmlns="http://www.w3.org/2000/svg"><circle cx="11.5" cy="7.5" r="3.75" stroke="currentColor" stroke-width="1.5" stroke-linecap="square"></circle><path fill-rule="evenodd" clip-rule="evenodd" d="M12 14.5H11.9921H11.983H11.9739H11.9648H11.9557H11.9466H11.9375H11.9283H11.9192H11.9101H11.901H11.8919H11.8828H11.8737H11.8645H11.8554H11.8463H11.8372H11.8281H11.819H11.8099H11.8007H11.7916H11.7825H11.7734H11.7643H11.7552H11.7461H11.7369H11.7278H11.7187H11.7096H11.7005H11.6914H11.6823H11.6731H11.664H11.6549H11.6458H11.6367H11.6276H11.6184H11.6093H11.6002H11.5911H11.582H11.5729H11.5638H11.5546H11.5455H11.5364H11.5273H11.5182H11.5091H11.5H11.4908H11.4817H11.4726H11.4635H11.4544H11.4453H11.4362H11.427H11.4179H11.4088H11.3997H11.3906H11.3815H11.3724H11.3632H11.3541H11.345H11.3359H11.3268H11.3177H11.3086H11.2994H11.2903H11.2812H11.2721H11.263H11.2539H11.2448H11.2356H11.2265H11.2174H11.2083H11.1992H11.1901H11.1809H11.1718H11.1627H11.1536H11.1445H11.1354H11.1263H11.1171H11.108H11.0989H11.0898H11.0807H11.0716H11.0625H11.0533H11.0442H11.0351H11.026H11.0169H11.0078H10.9987H10.9895H10.9804H10.9713H10.9622H10.9531H10.944H10.9349H10.9257H10.9166H10.9075H10.8984H10.8893H10.8802H10.8711H10.8619H10.8528H10.8437H10.8346H10.8255H10.8164H10.8073H10.7981H10.789H10.7799H10.7708H10.7617H10.7526H10.7434H10.7343H10.7252H10.7161H10.707H10.6979H10.6888H10.6796H10.6705H10.6614H10.6523H10.6432H10.6341H10.625H10.6158H10.6067H10.5976H10.5885H10.5794H10.5703H10.5612H10.552H10.5429H10.5338H10.5247H10.5156H10.5065H10.4974H10.4882H10.4791H10.47H10.4609H10.4518H10.4427H10.4336H10.4244H10.4153H10.4062H10.3971H10.388H10.3789H10.3698H10.3606H10.3515H10.3424H10.3333H10.3242H10.3151H10.3059H10.2968H10.2877H10.2786H10.2695H10.2604H10.2513H10.2421H10.233H10.2239H10.2148H10.2057H10.1966H10.1875H10.1783H10.1692H10.1601H10.151H10.1419H10.1328H10.1237H10.1145C7.31684 14.5 5.0385 16.7237 4.95051 19.5H12V21H4.78121C4.04483 21 3.44788 20.403 3.44788 19.6667C3.44788 15.9848 6.43264 13 10.1145 13H12V14.5Z" fill="currentColor"></path><path d="M17.9012 12.2692L21.6687 14.4443C21.7461 14.489 21.7937 14.5715 21.7937 14.6608V19.0111C21.7937 19.1004 21.7461 19.183 21.6687 19.2276L17.9012 21.4028C17.8239 21.4474 17.7286 21.4474 17.6512 21.4028L13.8838 19.2276C13.8064 19.183 13.7588 19.1004 13.7588 19.0111V14.6608C13.7588 14.5715 13.8064 14.489 13.8838 14.4443L17.6512 12.2692C17.7286 12.2245 17.8239 12.2245 17.9012 12.2692Z" stroke="currentColor" stroke-width="1.5"></path><path d="M16.2683 17.7092L19.2861 15.9669" stroke="currentColor" stroke-width="1.5"></path></svg>