<svg id="at_24" viewBox="0 0 24 24" fill="none" xmlns="http://www.w3.org/2000/svg"><path d="M12.3963 21.733C10.875 21.733 9.53018 21.5241 8.36186 21.1065C7.19354 20.6939 6.21165 20.0849 5.41619 19.2795C4.62074 18.4741 4.01918 17.4872 3.61151 16.3189C3.20384 15.1506 3 13.8132 3 12.3068C3 10.8501 3.20632 9.54759 3.61896 8.39915C4.03658 7.25071 4.64063 6.27628 5.43111 5.47585C6.22656 4.67045 7.19105 4.05646 8.32457 3.63388C9.46307 3.21129 10.7507 3 12.1875 3C13.5845 3 14.8075 3.22869 15.8565 3.68608C16.9105 4.13849 17.7905 4.75249 18.4964 5.52805C19.2074 6.29865 19.7393 7.16619 20.0923 8.13068C20.4503 9.09517 20.6293 10.0895 20.6293 11.1136C20.6293 11.8345 20.5945 12.5653 20.5249 13.3061C20.4553 14.0469 20.3086 14.728 20.0849 15.3494C19.8612 15.9659 19.5156 16.4631 19.0483 16.8409C18.5859 17.2188 17.9595 17.4077 17.169 17.4077C16.821 17.4077 16.4382 17.353 16.0206 17.2436C15.603 17.1342 15.2326 16.9528 14.9094 16.6992C14.5863 16.4457 14.3949 16.1051 14.3352 15.6776H14.2457C14.1264 15.9659 13.9425 16.2393 13.6939 16.4979C13.4503 16.7564 13.1296 16.9627 12.7319 17.1168C12.3391 17.271 11.8594 17.3381 11.2926 17.3182C10.6463 17.2933 10.0771 17.1491 9.58487 16.8857C9.09269 16.6172 8.68004 16.2543 8.34695 15.7969C8.01882 15.3345 7.77024 14.8001 7.60121 14.1935C7.43714 13.582 7.35511 12.9233 7.35511 12.2173C7.35511 11.5462 7.45455 10.9322 7.65341 10.3754C7.85227 9.81854 8.1282 9.33132 8.48118 8.91371C8.83913 8.49609 9.25675 8.163 9.73402 7.91442C10.2163 7.66087 10.7358 7.50426 11.2926 7.4446C11.7898 7.39489 12.2422 7.41726 12.6499 7.51172C13.0575 7.60121 13.3931 7.73793 13.6566 7.92188C13.9201 8.10085 14.0866 8.29972 14.1563 8.51847H14.2457V7.68324H15.8267V14.4247C15.8267 14.8423 15.9435 15.2102 16.1772 15.5284C16.4109 15.8466 16.7514 16.0057 17.1989 16.0057C17.706 16.0057 18.0938 15.8317 18.3622 15.4837C18.6357 15.1357 18.8221 14.5987 18.9215 13.8729C19.0259 13.147 19.0781 12.2173 19.0781 11.0838C19.0781 10.4176 18.9862 9.76136 18.8022 9.11506C18.6232 8.46378 18.3498 7.85476 17.9819 7.288C17.619 6.72124 17.1591 6.22159 16.6023 5.78906C16.0455 5.35653 15.3917 5.01847 14.641 4.77486C13.8952 4.52628 13.0476 4.40199 12.098 4.40199C10.9297 4.40199 9.88317 4.58345 8.95845 4.94638C8.03871 5.30433 7.25568 5.82884 6.60938 6.51989C5.96804 7.20597 5.47834 8.04119 5.14027 9.02557C4.80717 10.005 4.64062 11.1186 4.64062 12.3665C4.64062 13.6342 4.80717 14.7603 5.14027 15.7447C5.47834 16.729 5.9755 17.5593 6.63175 18.2354C7.29297 18.9116 8.1108 19.4237 9.08523 19.7717C10.0597 20.1246 11.1832 20.3011 12.456 20.3011C13.0028 20.3011 13.5423 20.2489 14.0742 20.1445C14.6062 20.0401 15.076 19.9258 15.4837 19.8015C15.8913 19.6772 16.1847 19.5852 16.3636 19.5256L16.7813 20.8977C16.473 21.027 16.0703 21.1563 15.5732 21.2855C15.081 21.4148 14.554 21.5217 13.9922 21.6062C13.4354 21.6907 12.9034 21.733 12.3963 21.733ZM11.5312 15.7969C12.1974 15.7969 12.7369 15.6626 13.1495 15.3942C13.5621 15.1257 13.8629 14.7205 14.0518 14.1786C14.2408 13.6367 14.3352 12.9531 14.3352 12.1278C14.3352 11.2926 14.2308 10.6413 14.022 10.174C13.8132 9.70668 13.505 9.37855 13.0973 9.18963C12.6896 9.00071 12.1875 8.90625 11.5909 8.90625C11.0241 8.90625 10.5394 9.0554 10.1367 9.35369C9.73899 9.64702 9.43324 10.0398 9.21946 10.532C9.01065 11.0192 8.90625 11.5511 8.90625 12.1278C8.90625 12.7642 8.99077 13.3633 9.1598 13.9251C9.32884 14.4819 9.60476 14.9343 9.98757 15.2823C10.3704 15.6254 10.8849 15.7969 11.5312 15.7969Z" fill="currentColor"></path></svg>