<svg id="del_24" viewBox="0 0 24 24" fill="none" xmlns="http://www.w3.org/2000/svg"><path fill-rule="evenodd" clip-rule="evenodd" d="M6.99976 3.5H16.9998V2H6.99976V3.5ZM22 7.50013L19.9062 7.50011L19.0879 20.5936C19.0385 21.3841 18.3829 22 17.5908 22H6.40918C5.61709 22 4.96151 21.3841 4.9121 20.5936L4.09375 7.5H2L2.00001 6H4H5.50293H18.4971H20L20 6.00011L22 6.00013L22 7.50013ZM18.4033 7.5001L5.59668 7.5L6.40918 20.5H17.5908L18.4033 7.5001ZM9.00001 17L9 11H10.5V17H9.00001ZM13.5033 11V17H15.0033V11H13.5033Z" fill="currentColor"></path></svg>