<svg id="download_24" viewBox="0 0 24 24" fill="none" xmlns="http://www.w3.org/2000/svg"><path fill-rule="evenodd" clip-rule="evenodd" d="M13 2.625L13 14.4608L17.2929 10.1679C17.6834 9.77737 18.3166 9.77737 18.7071 10.1679C19.0976 10.5584 19.0976 11.1916 18.7071 11.5821L12.7071 17.5821C12.3166 17.9726 11.6834 17.9726 11.2929 17.5821L5.29289 11.5821C4.90237 11.1916 4.90237 10.5584 5.29289 10.1679C5.68342 9.77737 6.31658 9.77737 6.70711 10.1679L11 14.4608L11 2.625C11 2.07271 11.4477 1.625 12 1.625C12.5523 1.625 13 2.07271 13 2.625ZM3 20.375C2.44772 20.375 2 20.8227 2 21.375C2 21.9273 2.44772 22.375 3 22.375H21C21.5523 22.375 22 21.9273 22 21.375C22 20.8227 21.5523 20.375 21 20.375H3Z" fill="currentColor"></path></svg>