<svg id="edit_24" viewBox="0 0 24 24" fill="none" xmlns="http://www.w3.org/2000/svg"><path fill-rule="evenodd" clip-rule="evenodd" d="M18.8816 5.59324L16.4068 3.11837C16.2115 2.92311 15.8949 2.92311 15.6997 3.11837L13.4016 5.41647L16.5835 8.59845L18.8816 6.30035C19.0769 6.10509 19.0769 5.78851 18.8816 5.59324ZM5.75081 13.0672L12.3409 6.47713L15.5229 9.65911L8.9328 16.2492L4.79622 17.2038L5.75081 13.0672ZM9.68926 17.6141L16.5835 10.7198L16.5836 10.7198L17.6442 9.65915L17.6442 9.65911L19.9423 7.36101C20.7234 6.57996 20.7234 5.31363 19.9423 4.53258L17.4674 2.05771C16.6864 1.27666 15.4201 1.27666 14.639 2.05771L4.38596 12.3108L3.15475 17.646C2.98858 18.3661 3.63392 19.0114 4.354 18.8453L9.68926 17.6141ZM3 20.7499H21V19.2499H3V20.7499Z" fill="currentColor"></path></svg>