<svg id="eye_on_24" viewBox="0 0 24 24" fill="none" xmlns="http://www.w3.org/2000/svg"><circle cx="12" cy="12" r="3.25" stroke="currentColor" stroke-width="1.5"></circle><path d="M21.1366 11.729C21.2069 11.8796 21.2336 11.9661 21.2438 12C21.2336 12.0339 21.2069 12.1204 21.1366 12.271C21.0353 12.4883 20.8761 12.7713 20.6572 13.0996C20.2202 13.7551 19.5706 14.5538 18.7397 15.3254C17.0696 16.8762 14.7434 18.25 12 18.25C9.25664 18.25 6.93042 16.8762 5.26034 15.3254C4.42938 14.5538 3.77979 13.7551 3.34279 13.0996C3.12392 12.7713 2.96468 12.4883 2.86336 12.271C2.79313 12.1204 2.76635 12.0339 2.75617 12C2.76635 11.9661 2.79313 11.8796 2.86336 11.729C2.96468 11.5117 3.12392 11.2287 3.34279 10.9004C3.77979 10.2449 4.42938 9.4462 5.26034 8.6746C6.93042 7.12381 9.25664 5.75 12 5.75C14.7434 5.75 17.0696 7.12381 18.7397 8.6746C19.5706 9.4462 20.2202 10.2449 20.6572 10.9004C20.8761 11.2287 21.0353 11.5117 21.1366 11.729Z" stroke="currentColor" stroke-width="1.5"></path></svg>