<svg id="eye_off_24" viewBox="0 0 24 24" fill="none" xmlns="http://www.w3.org/2000/svg"><path fill-rule="evenodd" clip-rule="evenodd" d="M7.07868 6.38902L3.68967 3L2.62901 4.06066L19.2484 20.68L20.309 19.6194L17.7641 17.0744C20.423 15.227 22 12.6279 22 12C22 11 18 5 12 5C10.1498 5 8.48986 5.57051 7.07868 6.38902ZM8.18187 7.49221L9.53738 8.84771C10.2163 8.31658 11.0712 8 12 8C14.2091 8 16 9.79086 16 12C16 12.9288 15.6834 13.7837 15.1523 14.4626L16.6842 15.9946C17.2441 15.6255 17.7611 15.2106 18.2293 14.7758C19.0162 14.0451 19.6279 13.2915 20.0332 12.6836C20.2194 12.4043 20.3514 12.1716 20.435 12C20.3514 11.8285 20.2194 11.5957 20.0332 11.3164C19.6279 10.7085 19.0162 9.9549 18.2293 9.22419C16.6392 7.74761 14.4867 6.5 12 6.5C10.6095 6.5 9.32348 6.8901 8.18187 7.49221ZM14.0788 13.3892C14.3449 12.9919 14.5 12.514 14.5 12C14.5 10.6193 13.3807 9.5 12 9.5C11.486 9.5 11.0081 9.65515 10.6108 9.92117L14.0788 13.3892ZM2 12C2 11.5082 2.96747 9.80705 4.66452 8.20503L5.72567 9.26618C4.96041 9.98371 4.36433 10.7202 3.96683 11.3164C3.78063 11.5957 3.64856 11.8284 3.56501 12C3.64856 12.1716 3.78063 12.4043 3.96683 12.6836C4.37209 13.2915 4.98375 14.0451 5.77068 14.7758C7.36084 16.2524 9.51327 17.5 12 17.5C12.6051 17.5 13.1904 17.4261 13.7526 17.2931L14.9643 18.5048C14.045 18.8151 13.0533 19 12 19C6 19 2 13 2 12ZM8 12C8 11.8527 8.00797 11.7072 8.02349 11.564L12.436 15.9765C12.2928 15.992 12.1473 16 12 16C9.79086 16 8 14.2091 8 12Z" fill="currentColor"></path></svg>