<svg id="group_24" viewBox="0 0 24 24" fill="none" xmlns="http://www.w3.org/2000/svg"><circle cx="9" cy="8" r="3.25" stroke="currentColor" stroke-width="1.5" stroke-linecap="square"></circle><circle cx="17" cy="9" r="2.25" stroke="currentColor" stroke-width="1.5" stroke-linecap="square"></circle><path d="M2.75 18.8333C2.75 16.0259 5.02589 13.75 7.83333 13.75H7.83789H7.84245H7.847H7.85156H7.85612H7.86068H7.86523H7.86979H7.87435H7.87891H7.88346H7.88802H7.89258H7.89714H7.90169H7.90625H7.91081H7.91536H7.91992H7.92448H7.92904H7.93359H7.93815H7.94271H7.94727H7.95182H7.95638H7.96094H7.96549H7.97005H7.97461H7.97917H7.98372H7.98828H7.99284H7.9974H8.00195H8.00651H8.01107H8.01562H8.02018H8.02474H8.0293H8.03385H8.03841H8.04297H8.04753H8.05208H8.05664H8.0612H8.06575H8.07031H8.07487H8.07943H8.08398H8.08854H8.0931H8.09766H8.10221H8.10677H8.11133H8.11589H8.12044H8.125H8.12956H8.13411H8.13867H8.14323H8.14779H8.15234H8.1569H8.16146H8.16602H8.17057H8.17513H8.17969H8.18424H8.1888H8.19336H8.19792H8.20247H8.20703H8.21159H8.21615H8.2207H8.22526H8.22982H8.23438H8.23893H8.24349H8.24805H8.2526H8.25716H8.26172H8.26628H8.27083H8.27539H8.27995H8.2845H8.28906H8.29362H8.29818H8.30273H8.30729H8.31185H8.31641H8.32096H8.32552H8.33008H8.33464H8.33919H8.34375H8.34831H8.35286H8.35742H8.36198H8.36654H8.37109H8.37565H8.38021H8.38477H8.38932H8.39388H8.39844H8.40299H8.40755H8.41211H8.41667H8.42122H8.42578H8.43034H8.4349H8.43945H8.44401H8.44857H8.45312H8.45768H8.46224H8.4668H8.47135H8.47591H8.48047H8.48503H8.48958H8.49414H8.4987H8.50326H8.50781H8.51237H8.51693H8.52148H8.52604H8.5306H8.53516H8.53971H8.54427H8.54883H8.55339H8.55794H8.5625H8.56706H8.57161H8.57617H8.58073H8.58529H8.58984H8.5944H8.59896H8.60352H8.60807H8.61263H8.61719H8.62174H8.6263H8.63086H8.63542H8.63997H8.64453H8.64909H8.65365H8.6582H8.66276H8.66732H8.67188H8.67643H8.68099H8.68555H8.6901H8.69466H8.69922H8.70378H8.70833H8.71289H8.71745H8.72201H8.72656H8.73112H8.73568H8.74023H8.74479H8.74935H8.75391H8.75846H8.76302H8.76758H8.77214H8.77669H8.78125H8.78581H8.79036H8.79492H8.79948H8.80404H8.80859H8.81315H8.81771H8.82227H8.82682H8.83138H8.83594H8.8405H8.84505H8.84961H8.85417H8.85872H8.86328H8.86784H8.8724H8.87695H8.88151H8.88607H8.89062H8.89518H8.89974H8.9043H8.90885H8.91341H8.91797H8.92253H8.92708H8.93164H8.9362H8.94076H8.94531H8.94987H8.95443H8.95898H8.96354H8.9681H8.97266H8.97721H8.98177H8.98633H8.99089H8.99544H9H9.00456H9.00911H9.01367H9.01823H9.02279H9.02734H9.0319H9.03646H9.04102H9.04557H9.05013H9.05469H9.05925H9.0638H9.06836H9.07292H9.07747H9.08203H9.08659H9.09115H9.0957H9.10026H9.10482H9.10938H9.11393H9.11849H9.12305H9.1276H9.13216H9.13672H9.14128H9.14583H9.15039H9.15495H9.15951H9.16406H9.16862H9.17318H9.17773H9.18229H9.18685H9.19141H9.19596H9.20052H9.20508H9.20964H9.21419H9.21875H9.22331H9.22786H9.23242H9.23698H9.24154H9.24609H9.25065H9.25521H9.25977H9.26432H9.26888H9.27344H9.278H9.28255H9.28711H9.29167H9.29622H9.30078H9.30534H9.3099H9.31445H9.31901H9.32357H9.32813H9.33268H9.33724H9.3418H9.34635H9.35091H9.35547H9.36003H9.36458H9.36914H9.3737H9.37826H9.38281H9.38737H9.39193H9.39648H9.40104H9.4056H9.41016H9.41471H9.41927H9.42383H9.42839H9.43294H9.4375H9.44206H9.44661H9.45117H9.45573H9.46029H9.46484H9.4694H9.47396H9.47852H9.48307H9.48763H9.49219H9.49675H9.5013H9.50586H9.51042H9.51497H9.51953H9.52409H9.52865H9.5332H9.53776H9.54232H9.54688H9.55143H9.55599H9.56055H9.5651H9.56966H9.57422H9.57878H9.58333H9.58789H9.59245H9.59701H9.60156H9.60612H9.61068H9.61523H9.61979H9.62435H9.62891H9.63346H9.63802H9.64258H9.64714H9.65169H9.65625H9.66081H9.66536H9.66992H9.67448H9.67904H9.68359H9.68815H9.69271H9.69727H9.70182H9.70638H9.71094H9.7155H9.72005H9.72461H9.72917H9.73372H9.73828H9.74284H9.7474H9.75195H9.75651H9.76107H9.76563H9.77018H9.77474H9.7793H9.78385H9.78841H9.79297H9.79753H9.80208H9.80664H9.8112H9.81576H9.82031H9.82487H9.82943H9.83398H9.83854H9.8431H9.84766H9.85221H9.85677H9.86133H9.86589H9.87044H9.875H9.87956H9.88411H9.88867H9.89323H9.89779H9.90234H9.9069H9.91146H9.91602H9.92057H9.92513H9.92969H9.93425H9.9388H9.94336H9.94792H9.95247H9.95703H9.96159H9.96615H9.9707H9.97526H9.97982H9.98438H9.98893H9.99349H9.99805H10.0026H10.0072H10.0117H10.0163H10.0208H10.0254H10.0299H10.0345H10.0391H10.0436H10.0482H10.0527H10.0573H10.0618H10.0664H10.071H10.0755H10.0801H10.0846H10.0892H10.0938H10.0983H10.1029H10.1074H10.112H10.1165H10.1211H10.1257H10.1302H10.1348H10.1393H10.1439H10.1484H10.153H10.1576H10.1621H10.1667C12.9741 13.75 15.25 16.0259 15.25 18.8333C15.25 19.0635 15.0635 19.25 14.8333 19.25H3.16667C2.93655 19.25 2.75 19.0635 2.75 18.8333Z" stroke="currentColor" stroke-width="1.5" stroke-linecap="square"></path><path fill-rule="evenodd" clip-rule="evenodd" d="M15.9881 19H20.2857C21.2324 19 22 18.2325 22 17.2857C22 14.9188 20.0812 13 17.7142 13H16.2857C15.217 13 14.2397 13.3911 13.4891 14.038C13.9068 14.328 14.2848 14.6711 14.6133 15.0576C15.0791 14.7075 15.6581 14.5 16.2857 14.5H16.2885H16.2912H16.294H16.2968H16.2996H16.3024H16.3052H16.308H16.3108H16.3136H16.3164H16.3192H16.3219H16.3247H16.3275H16.3303H16.3331H16.3359H16.3387H16.3415H16.3443H16.3471H16.3498H16.3526H16.3554H16.3582H16.361H16.3638H16.3666H16.3694H16.3722H16.375H16.3777H16.3805H16.3833H16.3861H16.3889H16.3917H16.3945H16.3973H16.4001H16.4029H16.4056H16.4084H16.4112H16.414H16.4168H16.4196H16.4224H16.4252H16.428H16.4308H16.4335H16.4363H16.4391H16.4419H16.4447H16.4475H16.4503H16.4531H16.4559H16.4587H16.4615H16.4642H16.467H16.4698H16.4726H16.4754H16.4782H16.481H16.4838H16.4866H16.4894H16.4921H16.4949H16.4977H16.5005H16.5033H16.5061H16.5089H16.5117H16.5145H16.5173H16.52H16.5228H16.5256H16.5284H16.5312H16.534H16.5368H16.5396H16.5424H16.5452H16.5479H16.5507H16.5535H16.5563H16.5591H16.5619H16.5647H16.5675H16.5703H16.5731H16.5758H16.5786H16.5814H16.5842H16.587H16.5898H16.5926H16.5954H16.5982H16.601H16.6037H16.6065H16.6093H16.6121H16.6149H16.6177H16.6205H16.6233H16.6261H16.6289H16.6317H16.6344H16.6372H16.64H16.6428H16.6456H16.6484H16.6512H16.654H16.6568H16.6596H16.6623H16.6651H16.6679H16.6707H16.6735H16.6763H16.6791H16.6819H16.6847H16.6875H16.6902H16.693H16.6958H16.6986H16.7014H16.7042H16.707H16.7098H16.7126H16.7154H16.7181H16.7209H16.7237H16.7265H16.7293H16.7321H16.7349H16.7377H16.7405H16.7433H16.746H16.7488H16.7516H16.7544H16.7572H16.76H16.7628H16.7656H16.7684H16.7712H16.774H16.7767H16.7795H16.7823H16.7851H16.7879H16.7907H16.7935H16.7963H16.7991H16.8019H16.8046H16.8074H16.8102H16.813H16.8158H16.8186H16.8214H16.8242H16.827H16.8298H16.8325H16.8353H16.8381H16.8409H16.8437H16.8465H16.8493H16.8521H16.8549H16.8577H16.8604H16.8632H16.866H16.8688H16.8716H16.8744H16.8772H16.88H16.8828H16.8856H16.8883H16.8911H16.8939H16.8967H16.8995H16.9023H16.9051H16.9079H16.9107H16.9135H16.9162H16.919H16.9218H16.9246H16.9274H16.9302H16.933H16.9358H16.9386H16.9414H16.9442H16.9469H16.9497H16.9525H16.9553H16.9581H16.9609H16.9637H16.9665H16.9693H16.9721H16.9748H16.9776H16.9804H16.9832H16.986H16.9888H16.9916H16.9944H16.9972H17H17.0027H17.0055H17.0083H17.0111H17.0139H17.0167H17.0195H17.0223H17.0251H17.0279H17.0306H17.0334H17.0362H17.039H17.0418H17.0446H17.0474H17.0502H17.053H17.0558H17.0585H17.0613H17.0641H17.0669H17.0697H17.0725H17.0753H17.0781H17.0809H17.0837H17.0865H17.0892H17.092H17.0948H17.0976H17.1004H17.1032H17.106H17.1088H17.1116H17.1144H17.1171H17.1199H17.1227H17.1255H17.1283H17.1311H17.1339H17.1367H17.1395H17.1423H17.145H17.1478H17.1506H17.1534H17.1562H17.159H17.1618H17.1646H17.1674H17.1702H17.1729H17.1757H17.1785H17.1813H17.1841H17.1869H17.1897H17.1925H17.1953H17.1981H17.2008H17.2036H17.2064H17.2092H17.212H17.2148H17.2176H17.2204H17.2232H17.226H17.2287H17.2315H17.2343H17.2371H17.2399H17.2427H17.2455H17.2483H17.2511H17.2539H17.2567H17.2594H17.2622H17.265H17.2678H17.2706H17.2734H17.2762H17.279H17.2818H17.2846H17.2873H17.2901H17.2929H17.2957H17.2985H17.3013H17.3041H17.3069H17.3097H17.3125H17.3152H17.318H17.3208H17.3236H17.3264H17.3292H17.332H17.3348H17.3376H17.3404H17.3431H17.3459H17.3487H17.3515H17.3543H17.3571H17.3599H17.3627H17.3655H17.3683H17.371H17.3738H17.3766H17.3794H17.3822H17.385H17.3878H17.3906H17.3934H17.3962H17.399H17.4017H17.4045H17.4073H17.4101H17.4129H17.4157H17.4185H17.4213H17.4241H17.4269H17.4296H17.4324H17.4352H17.438H17.4408H17.4436H17.4464H17.4492H17.452H17.4548H17.4575H17.4603H17.4631H17.4659H17.4687H17.4715H17.4743H17.4771H17.4799H17.4827H17.4854H17.4882H17.491H17.4938H17.4966H17.4994H17.5022H17.505H17.5078H17.5106H17.5133H17.5161H17.5189H17.5217H17.5245H17.5273H17.5301H17.5329H17.5357H17.5385H17.5413H17.544H17.5468H17.5496H17.5524H17.5552H17.558H17.5608H17.5636H17.5664H17.5692H17.5719H17.5747H17.5775H17.5803H17.5831H17.5859H17.5887H17.5915H17.5943H17.5971H17.5998H17.6026H17.6054H17.6082H17.611H17.6138H17.6166H17.6194H17.6222H17.625H17.6277H17.6305H17.6333H17.6361H17.6389H17.6417H17.6445H17.6473H17.6501H17.6529H17.6556H17.6584H17.6612H17.664H17.6668H17.6696H17.6724H17.6752H17.678H17.6808H17.6835H17.6863H17.6891H17.6919H17.6947H17.6975H17.7003H17.7031H17.7059H17.7087H17.7115H17.7142C19.2527 14.5 20.5 15.7472 20.5 17.2857C20.5 17.4041 20.404 17.5 20.2857 17.5H15.8469C15.947 17.9282 16 18.3746 16 18.8333C16 18.8899 15.9959 18.9456 15.9881 19Z" fill="currentColor"></path></svg>