<svg id="message_read_24" viewBox="0 0 24 24" fill="none" xmlns="http://www.w3.org/2000/svg"><g clip-path="url(#clip0_25658_8348)"><path fill-rule="evenodd" clip-rule="evenodd" d="M12 2H10.2609C5.69852 2 2 5.86018 2 10.6219C2 13.8092 3.65699 16.5925 6.12092 18.0847C6.21478 18.1415 6.30981 18.1965 6.40597 18.2495L6.4062 18.2497L6.40723 18.2502L6.40594 18.2502L6.40697 18.2507L6.4072 18.2508L6.41867 18.2565C6.51861 18.3114 6.61976 18.3643 6.72207 18.415C6.81208 18.4596 6.90298 18.5025 6.99474 18.5438L14.1477 21.8972C14.9766 22.2858 15.8528 21.4464 15.5134 20.5961L15.5063 20.5782C15.2341 19.8957 15.0062 19.2975 14.982 19.1502L14.9815 19.147C18.9544 18.5216 22 14.943 22 10.6219C22 10.4128 21.9929 10.2054 21.9788 10H20.4748C20.4915 10.2047 20.5 10.4121 20.5 10.6219C20.5 14.2409 17.9565 17.1602 14.7482 17.6653L13.2764 17.897L13.4982 19.3703C13.5251 19.5489 13.5846 19.7287 13.6094 19.8036L13.6106 19.8073C13.6328 19.8741 13.6582 19.9472 13.6858 20.024L7.63146 17.1856L7.62076 17.1806L7.60997 17.1758C7.45052 17.1041 7.29407 17.026 7.14089 16.9419L7.13156 16.9367C4.99024 15.7559 3.5 13.386 3.5 10.6219C3.5 6.62748 6.58678 3.5 10.2609 3.5H12V2Z" fill="currentColor"></path><path d="M14 4.77441L16.7539 7.52834L21.5 2.72559" stroke="currentColor" stroke-width="1.5" stroke-linejoin="round"></path></g><defs><clipPath id="clip0_25658_8348"><rect width="24" height="24" fill="white"></rect></clipPath></defs></svg>