<svg id="quote_24" viewBox="0 0 24 24" fill="none" xmlns="http://www.w3.org/2000/svg"><path fill-rule="evenodd" clip-rule="evenodd" d="M6.40596 18.2495C6.30962 18.1964 6.21441 18.1413 6.12037 18.0844C3.65674 16.5921 2 13.8089 2 10.6219C2 5.86018 5.69852 2 10.2609 2H13.7391C18.3015 2 22 5.86018 22 10.6219C22 14.943 18.9544 18.5216 14.9815 19.147L14.982 19.1502C15.0062 19.2976 15.2341 19.8958 15.5063 20.5782L15.5134 20.5961C15.8528 21.4464 14.9766 22.2858 14.1477 21.8972L6.99474 18.5438C6.90318 18.5026 6.81249 18.4598 6.72268 18.4153C6.62016 18.3645 6.51881 18.3115 6.41867 18.2565L6.40723 18.2502L6.40596 18.2495ZM7.14089 16.9419L7.13156 16.9367C4.99024 15.7559 3.5 13.386 3.5 10.6219C3.5 6.62748 6.58678 3.5 10.2609 3.5H13.7391C17.4132 3.5 20.5 6.62748 20.5 10.6219C20.5 14.2409 17.9565 17.1602 14.7482 17.6653L13.2764 17.897L13.4982 19.3703C13.5251 19.5489 13.5846 19.7287 13.6094 19.8035L13.6094 19.8036L13.6106 19.8073C13.6328 19.8741 13.6582 19.9472 13.6858 20.024L7.62076 17.1806L7.60997 17.1758C7.45053 17.1041 7.29407 17.026 7.14089 16.9419ZM10.7317 13.7831C10.8422 13.7831 10.9317 13.6936 10.9317 13.5831V10.6893C10.9317 10.5789 10.8422 10.4893 10.7317 10.4893H9.48098C9.3153 10.4893 9.18044 10.355 9.18623 10.1894C9.19449 9.95306 9.21253 9.71674 9.24033 9.48041C9.29968 9.12432 9.39859 8.8078 9.53707 8.53085C9.67555 8.25389 9.85359 8.03628 10.0712 7.87802C10.2888 7.69998 10.5658 7.61095 10.9021 7.61095V6.32726C10.9021 6.2168 10.8124 6.12662 10.7021 6.13257C10.2308 6.15803 9.81273 6.27496 9.44805 6.48335C9.03261 6.72074 8.68642 7.03726 8.40946 7.43291C8.15229 7.82856 7.95446 8.29345 7.81598 8.82758C7.69729 9.34193 7.63794 9.89585 7.63794 10.4893V13.5831C7.63794 13.6936 7.72748 13.7831 7.83794 13.7831H10.7317ZM16.1621 13.7831C16.2725 13.7831 16.3621 13.6936 16.3621 13.5831V10.6893C16.3621 10.5789 16.2725 10.4893 16.1621 10.4893H14.9113C14.7456 10.4893 14.6108 10.355 14.6166 10.1894C14.6248 9.95306 14.6429 9.71674 14.6707 9.48041C14.73 9.12432 14.8289 8.8078 14.9674 8.53085C15.1059 8.25389 15.2839 8.03628 15.5015 7.87802C15.7191 7.69998 15.9961 7.61095 16.3324 7.61095V6.32726C16.3324 6.2168 16.2428 6.12662 16.1325 6.13257C15.6611 6.15803 15.2431 6.27496 14.8784 6.48335C14.4629 6.72074 14.1167 7.03726 13.8398 7.43291C13.5826 7.82856 13.3848 8.29345 13.2463 8.82758C13.1276 9.34193 13.0683 9.89585 13.0683 10.4893V13.5831C13.0683 13.6936 13.1578 13.7831 13.2683 13.7831H16.1621Z" fill="currentColor"></path></svg>