<svg id="remark_24" viewBox="0 0 24 24" fill="none" xmlns="http://www.w3.org/2000/svg"><path fill-rule="evenodd" clip-rule="evenodd" d="M13 3.5H4.5L4.5 19.5H19.5V12H21V19.5C21 20.3284 20.3284 21 19.5 21H4.5C3.67157 21 3 20.3284 3 19.5V3.5C3 2.67157 3.67157 2 4.5 2H13V3.5Z" fill="currentColor"></path><path fill-rule="evenodd" clip-rule="evenodd" d="M18 3.62134L20.1213 5.74266L18.2123 7.65167L16.091 5.53035L18 3.62134ZM15.0303 6.59101L10.031 11.5903L9.39464 14.348L12.1524 13.7116L17.1516 8.71233L15.0303 6.59101ZM21.182 6.80332L12.9088 15.0765L8.1729 16.1694C7.81286 16.2525 7.49019 15.9298 7.57327 15.5697L8.66618 10.8338L16.9393 2.56068C17.5251 1.97489 18.4749 1.97489 19.0606 2.56068L21.182 4.682C21.7678 5.26779 21.7678 6.21753 21.182 6.80332Z" fill="currentColor"></path></svg>