<svg id="remind_mute_24" viewBox="0 0 24 24" fill="none" xmlns="http://www.w3.org/2000/svg"><path fill-rule="evenodd" clip-rule="evenodd" d="M12.75 4.2912C16.125 4.66428 18.75 7.52558 18.75 11V17.5H21V19H18.4141L20.0335 20.6194L18.9729 21.6801L3.16725 5.87443L4.22791 4.81377L6.50004 7.08591C7.5871 5.56114 9.2924 4.5076 11.25 4.2912V2H12.75V4.2912ZM7.57996 8.16583C8.51367 6.71267 10.1444 5.75 12 5.75C14.8995 5.75 17.25 8.10051 17.25 11V17.5H16.9141L7.57996 8.16583ZM12.6891 17.5L14.1891 19H3V17.5H5.25V11C5.25 10.7011 5.26943 10.4067 5.3071 10.118L6.75 11.5609V17.5H12.6891ZM8.5 20.5V22H15.5V20.5H8.5Z" fill="currentColor"></path></svg>