<svg id="save_as_24" viewBox="0 0 24 24" fill="none" xmlns="http://www.w3.org/2000/svg"><path fill-rule="evenodd" clip-rule="evenodd" d="M6 4.5H3.5L3.5 19.5H12V21H3.5C2.67157 21 2 20.3284 2 19.5V4.5C2 3.67157 2.67157 3 3.5 3H6H7.5H16.5H18H20.5C21.3284 3 22 3.67157 22 4.5V11H20.5V4.5H18V7.6C18 8.44008 18 8.86012 17.8365 9.18099C17.6927 9.46323 17.4632 9.6927 17.181 9.83651C16.8601 10 16.4401 10 15.6 10H8.4C7.55992 10 7.13988 10 6.81901 9.83651C6.53677 9.6927 6.3073 9.46323 6.16349 9.18099C6 8.86012 6 8.44008 6 7.6V4.5ZM7.5 4.5V7.6C7.5 8.04479 7.50117 8.28817 7.51545 8.46305L7.51717 8.48283L7.53695 8.48455C7.71183 8.49883 7.95521 8.5 8.4 8.5H15.6C16.0448 8.5 16.2882 8.49883 16.463 8.48455L16.4828 8.48283L16.4845 8.46305C16.4988 8.28817 16.5 8.04479 16.5 7.6V4.5H7.5Z" fill="currentColor"></path><path fill-rule="evenodd" clip-rule="evenodd" d="M19.4194 17.5H12V16H19.4194L17.467 14.0276L18.533 12.9724L21.7502 16.2224C22.0395 16.5146 22.0395 16.9854 21.7502 17.2776L18.533 20.5276L17.467 19.4724L19.4194 17.5Z" fill="currentColor"></path></svg>