<svg id="share_24" viewBox="0 0 24 24" fill="none" xmlns="http://www.w3.org/2000/svg"><path d="M13.1342 8.7379L13.75 8.62593V8V3.58661C13.75 3.3581 14.0313 3.24936 14.185 3.41844L21.8335 11.8318C21.9202 11.9272 21.9202 12.0728 21.8335 12.1682L14.185 20.5816C14.0313 20.7506 13.75 20.6419 13.75 20.4134V16V15.25H13C10.7447 15.25 9.13703 15.475 7.68011 16.0602C6.23343 16.6412 4.99388 17.5554 3.45357 18.8159C3.39722 18.862 3.34916 18.8752 3.31387 18.8779C3.27474 18.8808 3.23711 18.8715 3.20678 18.8543C3.17673 18.8372 3.16038 18.8164 3.15256 18.7995C3.14689 18.7873 3.13538 18.7564 3.14999 18.6918C3.88212 15.4554 5.22742 13.1925 6.9355 11.6326C8.64687 10.0697 10.7719 9.1674 13.1342 8.7379Z" stroke="currentColor" stroke-width="1.5"></path></svg>