<svg id="nav_skin_normal_24" viewBox="0 0 24 24" fill="none" xmlns="http://www.w3.org/2000/svg"><path fill-rule="evenodd" clip-rule="evenodd" d="M6 13.75V19C6 19.2761 6.22386 19.5 6.5 19.5H17.5C17.7761 19.5 18 19.2761 18 19V13.75V13.5V12.8758V11.0757C18 10.8283 18.3208 10.7312 18.458 10.937L19.0531 11.8296L21.9702 8.93156L18.4452 4.68083C18.3502 4.56628 18.2091 4.5 18.0603 4.5H14.9397C14.8885 4.87806 14.7927 5.2865 14.6121 5.66728C14.4131 6.08689 14.0956 6.51092 13.6041 6.81907C13.1149 7.12587 12.5613 7.25 12 7.25C11.4387 7.25 10.8851 7.12587 10.3959 6.81907C9.90444 6.51092 9.58692 6.08689 9.3879 5.66728C9.20729 5.2865 9.11152 4.87806 9.0603 4.5H5.93968C5.79087 4.5 5.6498 4.56628 5.5548 4.68083L2.02981 8.93156L4.94693 11.8296L5.54199 10.937C5.67919 10.7312 6 10.8283 6 11.0757V12.8758V13.5V13.75ZM19.5 13.5V13.75V19C19.5 20.1046 18.6046 21 17.5 21H6.5C5.39543 21 4.5 20.1046 4.5 19V13.75V13.5L0 9.02941L4.40017 3.72333C4.78013 3.26514 5.34444 3 5.93968 3H10C10.2761 3 10.4975 3.22375 10.5 3.49988C10.5097 4.56529 10.6388 5.75 12 5.75C13.3612 5.75 13.4903 4.56529 13.5 3.49988C13.5025 3.22375 13.7239 3 14 3H18.0603C18.6556 3 19.2199 3.26514 19.5998 3.72333L24 9.02941L19.5 13.5Z" fill="currentColor"></path></svg>