<svg id="storage_24" viewBox="0 0 24 24" fill="none" xmlns="http://www.w3.org/2000/svg"><path d="M5.25 11L5.25 11.3107L5.03033 11.5303L3.96967 12.591L3.43934 12.0607L3.96967 12.591C3.82902 12.7316 3.75 12.9224 3.75 13.1213L3.75 20C3.75 20.4142 4.08579 20.75 4.5 20.75L19.5 20.75C19.9142 20.75 20.25 20.4142 20.25 20L20.25 3.5C20.25 3.08579 19.9142 2.75 19.5 2.75L6 2.75C5.58579 2.75 5.25 3.08579 5.25 3.5L5.25 11Z" stroke="currentColor" stroke-width="1.5"></path><rect x="9" y="5" width="1.5" height="3" fill="currentColor"></rect><rect x="12" y="5" width="1.5" height="3" fill="currentColor"></rect><rect x="15" y="5" width="1.5" height="3" fill="currentColor"></rect></svg>